<svg xmlns="http://www.w3.org/2000/svg" viewBox="0 0 512 512"><defs><linearGradient id="g" x1="0" y1="0" x2="1" y2="1"><stop offset="0" stop-color="rgb(13, 100, 94)"/><stop offset="1" stop-color="rgb(20, 184, 166)"/></linearGradient></defs><rect width="512" height="512" rx="112" fill="url(#g)"/><path d="M126 88 H330 L416 174 V422 a30 30 0 0 1 -30 30 H126 a30 30 0 0 1 -30 -30 V118 a30 30 0 0 1 30 -30 z" fill="rgb(255, 255, 255)"/><path d="M330 88 V174 H416 z" fill="rgb(203, 225, 221)"/><rect x="144" y="196" width="196" height="32" rx="16" fill="rgb(245, 158, 11)"/><rect x="144" y="268" width="224" height="24" rx="12" fill="rgb(100, 132, 126)"/><rect x="144" y="316" width="224" height="24" rx="12" fill="rgb(100, 132, 126)"/><rect x="144" y="364" width="152" height="24" rx="12" fill="rgb(100, 132, 126)"/></svg>
